<mxfile host="app.diagrams.net" modified="2022-06-14T13:28:16.777Z" agent="5.0 (Windows NT 10.0; Win64; x64) AppleWebKit/537.36 (KHTML, like Gecko) Chrome/102.0.5005.115 Safari/537.36" etag="u6_Etb17P5oCqW6azDtZ" version="20.0.1" type="github">
  <diagram id="YwctwQ0RzExP9tocAWCt" name="Page-1">
    <mxGraphModel dx="1341" dy="882" grid="1" gridSize="10" guides="1" tooltips="1" connect="1" arrows="1" fold="1" page="1" pageScale="1" pageWidth="1100" pageHeight="850" math="0" shadow="0">
      <root>
        <mxCell id="0" />
        <mxCell id="1" parent="0" />
        <mxCell id="KN3zhOOXSCsKJqI7j2EF-13" value="" style="rounded=1;whiteSpace=wrap;html=1;fillColor=none;dashed=1;dashPattern=1 2;" parent="1" vertex="1">
          <mxGeometry x="394" y="380" width="270" height="320" as="geometry" />
        </mxCell>
        <mxCell id="KN3zhOOXSCsKJqI7j2EF-16" value="" style="rounded=1;whiteSpace=wrap;html=1;fillColor=none;dashed=1;dashPattern=1 2;" parent="1" vertex="1">
          <mxGeometry x="389" y="80" width="270" height="180" as="geometry" />
        </mxCell>
        <mxCell id="KN3zhOOXSCsKJqI7j2EF-2" value="" style="rounded=1;whiteSpace=wrap;html=1;strokeWidth=2;fillWeight=4;hachureGap=8;hachureAngle=45;fillColor=#68B85C;sketch=1;" parent="1" vertex="1">
          <mxGeometry x="519" y="100" width="120" height="60" as="geometry" />
        </mxCell>
        <mxCell id="KN3zhOOXSCsKJqI7j2EF-3" value="" style="rounded=1;whiteSpace=wrap;html=1;strokeWidth=2;fillWeight=4;hachureGap=8;hachureAngle=45;fillColor=#68B85C;sketch=1;" parent="1" vertex="1">
          <mxGeometry x="519" y="180" width="120" height="60" as="geometry" />
        </mxCell>
        <mxCell id="KN3zhOOXSCsKJqI7j2EF-4" value="" style="rounded=1;whiteSpace=wrap;html=1;strokeWidth=2;fillWeight=4;hachureGap=8;hachureAngle=45;fillColor=#1ba1e2;sketch=1;" parent="1" vertex="1">
          <mxGeometry x="514" y="390" width="120" height="60" as="geometry" />
        </mxCell>
        <mxCell id="KN3zhOOXSCsKJqI7j2EF-5" value="" style="rounded=1;whiteSpace=wrap;html=1;strokeWidth=2;fillWeight=4;hachureGap=8;hachureAngle=45;fillColor=#1ba1e2;sketch=1;" parent="1" vertex="1">
          <mxGeometry x="514" y="470" width="120" height="60" as="geometry" />
        </mxCell>
        <mxCell id="KN3zhOOXSCsKJqI7j2EF-6" value="" style="rounded=1;whiteSpace=wrap;html=1;strokeWidth=2;fillWeight=4;hachureGap=8;hachureAngle=45;fillColor=#1ba1e2;sketch=1;" parent="1" vertex="1">
          <mxGeometry x="514" y="550" width="120" height="60" as="geometry" />
        </mxCell>
        <mxCell id="KN3zhOOXSCsKJqI7j2EF-7" value="" style="rounded=1;whiteSpace=wrap;html=1;strokeWidth=2;fillWeight=4;hachureGap=8;hachureAngle=45;fillColor=#1ba1e2;sketch=1;" parent="1" vertex="1">
          <mxGeometry x="514" y="630" width="120" height="60" as="geometry" />
        </mxCell>
        <mxCell id="KN3zhOOXSCsKJqI7j2EF-25" style="edgeStyle=orthogonalEdgeStyle;rounded=0;orthogonalLoop=1;jettySize=auto;html=1;entryX=-0.019;entryY=0.444;entryDx=0;entryDy=0;entryPerimeter=0;" parent="1" source="KN3zhOOXSCsKJqI7j2EF-10" target="KN3zhOOXSCsKJqI7j2EF-16" edge="1">
          <mxGeometry relative="1" as="geometry" />
        </mxCell>
        <mxCell id="KN3zhOOXSCsKJqI7j2EF-27" value="一级质量·ONLY" style="edgeLabel;html=1;align=center;verticalAlign=middle;resizable=0;points=[];" parent="KN3zhOOXSCsKJqI7j2EF-25" vertex="1" connectable="0">
          <mxGeometry x="-0.1348" y="2" relative="1" as="geometry">
            <mxPoint x="2" as="offset" />
          </mxGeometry>
        </mxCell>
        <mxCell id="KN3zhOOXSCsKJqI7j2EF-10" value="" style="verticalLabelPosition=bottom;html=1;verticalAlign=top;align=center;strokeColor=none;fillColor=#68B85C;shape=mxgraph.azure.mobile;pointerEvents=1;" parent="1" vertex="1">
          <mxGeometry x="95" y="120" width="65" height="80" as="geometry" />
        </mxCell>
        <mxCell id="KN3zhOOXSCsKJqI7j2EF-23" style="edgeStyle=orthogonalEdgeStyle;rounded=0;orthogonalLoop=1;jettySize=auto;html=1;" parent="1" source="KN3zhOOXSCsKJqI7j2EF-12" target="KN3zhOOXSCsKJqI7j2EF-13" edge="1">
          <mxGeometry relative="1" as="geometry">
            <Array as="points">
              <mxPoint x="322" y="510" />
              <mxPoint x="322" y="540" />
            </Array>
          </mxGeometry>
        </mxCell>
        <mxCell id="KN3zhOOXSCsKJqI7j2EF-26" style="edgeStyle=orthogonalEdgeStyle;rounded=0;orthogonalLoop=1;jettySize=auto;html=1;entryX=0.5;entryY=1;entryDx=0;entryDy=0;exitX=1;exitY=0.5;exitDx=0;exitDy=0;exitPerimeter=0;" parent="1" source="KN3zhOOXSCsKJqI7j2EF-12" target="KN3zhOOXSCsKJqI7j2EF-16" edge="1">
          <mxGeometry relative="1" as="geometry">
            <Array as="points">
              <mxPoint x="322" y="510" />
              <mxPoint x="322" y="300" />
              <mxPoint x="524" y="300" />
            </Array>
          </mxGeometry>
        </mxCell>
        <mxCell id="KN3zhOOXSCsKJqI7j2EF-28" value="二级及以上质量" style="edgeLabel;html=1;align=center;verticalAlign=middle;resizable=0;points=[];" parent="KN3zhOOXSCsKJqI7j2EF-26" vertex="1" connectable="0">
          <mxGeometry x="-0.8024" y="1" relative="1" as="geometry">
            <mxPoint as="offset" />
          </mxGeometry>
        </mxCell>
        <mxCell id="KN3zhOOXSCsKJqI7j2EF-12" value="" style="verticalLabelPosition=bottom;html=1;verticalAlign=top;align=center;strokeColor=none;fillColor=#1BA1E2;shape=mxgraph.azure.mobile;pointerEvents=1;" parent="1" vertex="1">
          <mxGeometry x="95" y="470" width="65" height="80" as="geometry" />
        </mxCell>
        <mxCell id="KN3zhOOXSCsKJqI7j2EF-15" value="二级质量" style="text;strokeColor=none;fillColor=none;html=1;fontSize=24;fontStyle=1;verticalAlign=middle;align=center;dashed=1;dashPattern=1 2;" parent="1" vertex="1">
          <mxGeometry x="404" y="510" width="100" height="40" as="geometry" />
        </mxCell>
        <mxCell id="KN3zhOOXSCsKJqI7j2EF-17" value="一级质量&lt;br&gt;(中国区)" style="text;strokeColor=none;fillColor=none;html=1;fontSize=24;fontStyle=1;verticalAlign=middle;align=center;dashed=1;dashPattern=1 2;" parent="1" vertex="1">
          <mxGeometry x="409" y="140" width="100" height="40" as="geometry" />
        </mxCell>
        <mxCell id="KN3zhOOXSCsKJqI7j2EF-18" value="Reno 8 &amp;amp; FindX" style="text;html=1;strokeColor=none;fillColor=none;align=center;verticalAlign=middle;whiteSpace=wrap;rounded=0;dashed=1;dashPattern=1 2;" parent="1" vertex="1">
          <mxGeometry x="35" y="145" width="60" height="30" as="geometry" />
        </mxCell>
        <mxCell id="KN3zhOOXSCsKJqI7j2EF-19" value="A&amp;nbsp; &amp;amp; K Series" style="text;html=1;strokeColor=none;fillColor=none;align=center;verticalAlign=middle;whiteSpace=wrap;rounded=0;dashed=1;dashPattern=1 2;" parent="1" vertex="1">
          <mxGeometry x="30" y="495" width="60" height="30" as="geometry" />
        </mxCell>
        <mxCell id="imtI-mBsETlMrwjX6EPf-10" style="edgeStyle=orthogonalEdgeStyle;rounded=0;orthogonalLoop=1;jettySize=auto;html=1;entryX=0.5;entryY=0;entryDx=0;entryDy=0;entryPerimeter=0;" edge="1" parent="1" source="imtI-mBsETlMrwjX6EPf-5" target="imtI-mBsETlMrwjX6EPf-9">
          <mxGeometry relative="1" as="geometry" />
        </mxCell>
        <mxCell id="imtI-mBsETlMrwjX6EPf-5" value="成都审核" style="shape=mxgraph.signs.people.man_1;html=1;pointerEvents=1;fillColor=#000000;strokeColor=none;verticalLabelPosition=bottom;verticalAlign=top;align=center;dashed=1;dashPattern=1 2;" vertex="1" parent="1">
          <mxGeometry x="840" y="70" width="37" height="98" as="geometry" />
        </mxCell>
        <mxCell id="imtI-mBsETlMrwjX6EPf-11" style="edgeStyle=orthogonalEdgeStyle;rounded=0;orthogonalLoop=1;jettySize=auto;html=1;entryX=0.5;entryY=0;entryDx=0;entryDy=0;entryPerimeter=0;" edge="1" parent="1" source="imtI-mBsETlMrwjX6EPf-6" target="imtI-mBsETlMrwjX6EPf-9">
          <mxGeometry relative="1" as="geometry" />
        </mxCell>
        <mxCell id="imtI-mBsETlMrwjX6EPf-6" value="锁屏审核" style="shape=mxgraph.signs.people.man_1;html=1;pointerEvents=1;fillColor=#000000;strokeColor=none;verticalLabelPosition=bottom;verticalAlign=top;align=center;dashed=1;dashPattern=1 2;" vertex="1" parent="1">
          <mxGeometry x="990" y="70" width="37" height="98" as="geometry" />
        </mxCell>
        <mxCell id="imtI-mBsETlMrwjX6EPf-14" style="edgeStyle=orthogonalEdgeStyle;rounded=0;orthogonalLoop=1;jettySize=auto;html=1;entryX=1;entryY=0.5;entryDx=0;entryDy=0;" edge="1" parent="1" source="imtI-mBsETlMrwjX6EPf-9" target="KN3zhOOXSCsKJqI7j2EF-13">
          <mxGeometry relative="1" as="geometry">
            <Array as="points">
              <mxPoint x="740" y="400" />
              <mxPoint x="740" y="540" />
            </Array>
          </mxGeometry>
        </mxCell>
        <mxCell id="imtI-mBsETlMrwjX6EPf-17" style="edgeStyle=orthogonalEdgeStyle;rounded=0;orthogonalLoop=1;jettySize=auto;html=1;entryX=1;entryY=0.5;entryDx=0;entryDy=0;strokeWidth=2;" edge="1" parent="1" source="imtI-mBsETlMrwjX6EPf-9" target="KN3zhOOXSCsKJqI7j2EF-16">
          <mxGeometry relative="1" as="geometry" />
        </mxCell>
        <object placeholders="1" c4Name="System name" c4Type="Software System" c4Description="Description of software system." label="&lt;font style=&quot;font-size: 16px&quot;&gt;&lt;b&gt;%c4Name%&lt;/b&gt;&lt;/font&gt;&lt;div&gt;[%c4Type%]&lt;/div&gt;&lt;br&gt;&lt;div&gt;&lt;font style=&quot;font-size: 11px&quot;&gt;&lt;font color=&quot;#cccccc&quot;&gt;%c4Description%&lt;/font&gt;&lt;/div&gt;" id="imtI-mBsETlMrwjX6EPf-9">
          <mxCell style="rounded=1;whiteSpace=wrap;html=1;labelBackgroundColor=none;fillColor=#1061B0;fontColor=#ffffff;align=center;arcSize=10;strokeColor=#0D5091;metaEdit=1;resizable=0;points=[[0.25,0,0],[0.5,0,0],[0.75,0,0],[1,0.25,0],[1,0.5,0],[1,0.75,0],[0.75,1,0],[0.5,1,0],[0.25,1,0],[0,0.75,0],[0,0.5,0],[0,0.25,0]];dashed=1;dashPattern=1 2;" vertex="1" parent="1">
            <mxGeometry x="820" y="340" width="240" height="120" as="geometry" />
          </mxCell>
        </object>
        <mxCell id="imtI-mBsETlMrwjX6EPf-12" value="合并审核" style="text;strokeColor=none;fillColor=none;html=1;fontSize=24;fontStyle=1;verticalAlign=middle;align=center;dashed=1;dashPattern=1 2;" vertex="1" parent="1">
          <mxGeometry x="880" y="210" width="100" height="40" as="geometry" />
        </mxCell>
        <mxCell id="imtI-mBsETlMrwjX6EPf-15" style="edgeStyle=orthogonalEdgeStyle;rounded=0;orthogonalLoop=1;jettySize=auto;html=1;entryX=1;entryY=0.5;entryDx=0;entryDy=0;strokeWidth=2;" edge="1" parent="1">
          <mxGeometry relative="1" as="geometry">
            <mxPoint x="820" y="400" as="sourcePoint" />
            <mxPoint x="664" y="540" as="targetPoint" />
            <Array as="points">
              <mxPoint x="740" y="400" />
              <mxPoint x="740" y="540" />
            </Array>
          </mxGeometry>
        </mxCell>
        <mxCell id="imtI-mBsETlMrwjX6EPf-18" value="结果同步" style="text;strokeColor=none;fillColor=none;html=1;fontSize=24;fontStyle=1;verticalAlign=middle;align=center;dashed=1;dashPattern=1 2;" vertex="1" parent="1">
          <mxGeometry x="639" y="310" width="80" height="40" as="geometry" />
        </mxCell>
        <mxCell id="imtI-mBsETlMrwjX6EPf-19" value="" style="rounded=1;whiteSpace=wrap;html=1;fillColor=none;dashed=1;dashPattern=1 2;" vertex="1" parent="1">
          <mxGeometry x="795" y="60" width="285" height="420" as="geometry" />
        </mxCell>
        <mxCell id="imtI-mBsETlMrwjX6EPf-20" value="功能点" style="text;strokeColor=#d6b656;fillColor=#fff2cc;html=1;fontSize=24;fontStyle=1;verticalAlign=middle;align=center;dashed=1;dashPattern=1 2;" vertex="1" parent="1">
          <mxGeometry x="890" y="10" width="100" height="40" as="geometry" />
        </mxCell>
      </root>
    </mxGraphModel>
  </diagram>
</mxfile>
